<?xml version="1.0" encoding="utf-8"?>
<!-- Generator: Adobe Illustrator 23.0.5, SVG Export Plug-In . SVG Version: 6.00 Build 0)  -->
<svg version="1.1" xmlns="http://www.w3.org/2000/svg" xmlns:xlink="http://www.w3.org/1999/xlink" x="0px" y="0px"
	 viewBox="0 0 2000 1128" style="enable-background:new 0 0 2000 1128;" xml:space="preserve">
<style type="text/css">
	.st0{fill-opacity:3.000000e-02;}
	.st1{fill-opacity:2.000000e-02;}
	.st2{fill-rule:evenodd;clip-rule:evenodd;fill:#FEFEFE;}
</style>
<g id="Background">
	<polygon class="st0" points="0,1077.8 392.6,778.4 1505,1127.7 0,1127.7 	"/>
	<polygon class="st1" points="392.2,778.4 283.3,0 0,0 0,666.5 	"/>
	<polygon class="st0" points="1000,0 2000,1010 2000,439.9 1749.8,0 	"/>
</g>
<g id="Logo">
	<g id="Page-1">
		<g id="PRODUCTO" transform="translate(-134.000000, -2429.000000)">
			<g id="Group-19-Copy" transform="translate(0.000000, 2367.000000)">
				<g id="LOGO" transform="translate(134.000000, 62.000000)">
					<path id="Fill-1" class="st2" d="M237.4,34.9c0,0-2.2,0.1-2.2,3.3V63c0,0-0.1,7,5.1,7h22.2c0,0,5.6,0.6,5.8-6.5V38.4
						c0,0,0.4-3.5-2.5-3.5h-3.8c0,0-2.4,0-2.4,3.1v19.6c0,0,0.3,3.5-2.3,3.1h-10.7c0,0-2.7,0.5-2.5-3.3V38.4c0,0,0.2-3.4-2.3-3.5
						L237.4,34.9z"/>
					<path id="Fill-3" class="st2" d="M106.2,34.9c0,0-2.1-0.2-2.3,3.5v28.5c0,0,0,3.2,1.9,3.2h5.1c0,0,2,0.2,2.1-3V48l12.1,18.9
						c0,0,1.3,2.1,2.8,2.1c1.5,0,2.5-1.5,2.9-2.2l11.4-18.2v18c0,0-0.1,3.4,1.9,3.4h5.3c0,0,1.8,0,1.9-3.4V38.4c0,0,0.2-3.5-2.2-3.5
						h-5c0,0-1.7-0.4-3.3,2.2l-11.4,16.5c0,0-1.1,1.5-1.5,1.5c-0.4-0.1-1.1-1.1-1.4-1.5l-11.3-16.6c0,0-1.6-2.6-4.1-2.2H106.2z"/>
					<path id="Fill-5" class="st2" d="M48.2,33.5c0,0-30.3,51.3-31.3,53c-0.7,1.3-1.5,2.4-1.5,4.1c0,0.7,0.1,1.4,0.4,2
						c1.1,2.4,3.6,3.2,6.6,3.2c0.1,0,0.1,0,0.2,0c3.7-0.1,9.5-1.2,12.3-5.5c0.3-0.5,1.9-3.4,4.2-7.7c6.1-11.3,17-31.5,19.6-36.3
						c1.7,3,6.7,11.8,7.4,13c0.9,1.5,2.1,3.7,4.7,3.7c0.9,0,1.9-0.2,3.2-0.7c0,0,0.7-0.2,1.4-0.8c0.7-0.5,1.5-1.6,1.5-3.4
						c0-1.1-0.3-2.2-1-3.4L63.3,31.5c-0.1-0.2-2-3.7-6.9-3.7c-0.3,0-0.6,0-0.9,0C52.5,28.1,50.2,30.1,48.2,33.5L48.2,33.5z
						 M98.2,59.8c0,0-10.9-23.7-12.1-25.9c-0.4-0.8-1-2.3-1.9-3.7c-0.9-1.3-2.3-2.4-4.2-2.4c-0.6,0-1.2,0.1-1.9,0.3
						c-2,0.6-3.6,1.3-4.7,2.3c-1.1,0.9-1.9,2.3-1.9,4c0,1.1,0.3,2.3,0.9,3.4C74.5,42.3,85.7,65,85.7,65l0,0c0.3,0.6,2.6,5.9,6.3,6
						c0.2,0,0.4,0,0.5,0c1.6-0.3,3.2-0.9,4.4-2c1.2-1.1,2.3-2.8,2.3-5C99.2,62.6,98.8,61.3,98.2,59.8z"/>
					<path id="Fill-7" class="st2" d="M177.7,66.9c0,0-0.1,3.1,1.9,3.2h4.6c0,0,2.2,0.1,2.3-3V44.8h8.8c0,0,1.9,0.3,2-2.6v-4.5
						c0,0,0.1-2.9-2.3-2.9h-25.5c0,0-2.1-0.1-2.2,2.9v4.1c0,0-0.2,3,2.4,2.9h8.2L177.7,66.9z"/>
					<path id="Fill-9" class="st2" d="M156.8,34.9c0,0-2.2-0.1-2.2,3.1v28.9c0,0-0.1,3.1,2,3.2h5c0,0,2.4,0.1,2.5-3V38.1
						c0,0,0.2-3.2-2.1-3.2H156.8z"/>
					<path id="Fill-11" class="st2" d="M201.8,34.9c0,0-2.7-0.3-2.9,2.8V42c0,0-0.2,3.2,3,3h16.9l-16.4,12.4c0,0-3.6,2.6-3.4,7.4
						c0.2,4.4,3,5.1,4.3,5.1h24.9c0,0,2.2,0.1,2.3-2.8v-4.4c0,0,0.1-3.1-2.6-3h-14.4l13.2-10c0,0,4.2-2.4,3.8-8.1
						c-0.3-4.6-2-6.9-5.4-6.8H201.8z"/>
					<path id="Fill-16" class="st2" d="M273.5,82.8h0.3c0.4,0,0.7-0.2,0.7-0.7c0-0.3-0.2-0.7-0.7-0.7c-0.1,0-0.2,0-0.3,0V82.8z
						 M273.5,85h-0.4v-3.9c0.2,0,0.4-0.1,0.8-0.1c0.4,0,0.7,0.1,0.8,0.3c0.2,0.2,0.2,0.4,0.2,0.8c0,0.5-0.2,0.8-0.5,1v0
						c0.2,0.1,0.4,0.4,0.4,1c0.1,0.6,0.1,0.8,0.2,1h-0.5c-0.1-0.1-0.1-0.5-0.2-1c-0.1-0.5-0.2-0.7-0.6-0.7h-0.3V85z M274,80
						c-1.1,0-1.9,1.3-1.9,3c0,1.7,0.9,3,1.9,3c1.1,0,1.9-1.3,1.9-3C275.9,81.3,275.1,80,274,80L274,80z M274,79.4
						c1.3,0,2.4,1.6,2.4,3.5c0,2-1,3.5-2.4,3.5c-1.3,0-2.4-1.5-2.4-3.5C271.6,81,272.7,79.4,274,79.4L274,79.4z"/>
					<g id="Group-20" transform="translate(56.000000, 24.000000)">
						<path id="Fill-18" class="st2" d="M48.6,70.2l1.5-0.4c0.1,0.9,0.3,1.6,0.7,2.1c0.4,0.5,0.9,0.7,1.6,0.7c0.7,0,1.2-0.2,1.6-0.6
							c0.3-0.4,0.5-0.9,0.5-1.5c0-0.5-0.2-0.9-0.5-1.2c-0.2-0.2-0.7-0.5-1.6-0.8c-1.1-0.4-1.9-0.8-2.3-1.1c-0.4-0.3-0.8-0.7-1-1.3
							c-0.2-0.5-0.3-1.1-0.3-1.8c0-0.6,0.1-1.2,0.3-1.7c0.2-0.5,0.4-0.9,0.8-1.3c0.2-0.3,0.6-0.5,1-0.7c0.4-0.2,0.9-0.3,1.3-0.3
							c0.7,0,1.3,0.2,1.9,0.5c0.5,0.3,0.9,0.7,1.2,1.2c0.3,0.5,0.4,1.2,0.5,2.1l-1.5,0.3c-0.1-0.7-0.3-1.2-0.6-1.6
							c-0.3-0.4-0.8-0.6-1.4-0.6c-0.7,0-1.2,0.2-1.5,0.5c-0.3,0.3-0.5,0.8-0.5,1.2c0,0.3,0.1,0.6,0.2,0.8c0.1,0.2,0.3,0.4,0.6,0.6
							c0.2,0.1,0.6,0.3,1.4,0.6c1.1,0.4,1.8,0.8,2.3,1.1c0.4,0.3,0.8,0.7,1,1.2c0.2,0.5,0.4,1.2,0.4,2c0,0.8-0.1,1.5-0.4,2.2
							c-0.3,0.7-0.7,1.2-1.3,1.6c-0.6,0.4-1.2,0.6-1.9,0.6c-1.2,0-2.1-0.4-2.7-1.1C49.2,72.7,48.8,71.6,48.6,70.2"/>
					</g>
					<path id="Fill-21" class="st2" d="M115,98.2h1.5V86.3H115V98.2z M115,84.1h1.5v-2.3H115V84.1z"/>
					<path id="Fill-23" class="st2" d="M121.3,89.9h4.8c-0.1-1.1-0.2-2-0.5-2.5c-0.5-0.9-1.1-1.3-1.8-1.3c-0.7,0-1.2,0.4-1.7,1.1
						C121.6,87.8,121.4,88.7,121.3,89.9 M126.1,93.6l1.5,0.3c-0.2,1.4-0.7,2.4-1.3,3.2c-0.6,0.8-1.5,1.1-2.5,1.1
						c-1.3,0-2.3-0.6-3-1.8c-0.7-1.2-1.1-2.9-1.1-5.1c0-2.3,0.4-4,1.1-5.3c0.7-1.3,1.7-1.9,2.9-1.9c1.1,0,2.1,0.6,2.8,1.8
						c0.7,1.2,1.1,3,1.1,5.2c0,0.1,0,0.3,0,0.6h-6.4c0.1,1.5,0.3,2.6,0.8,3.4c0.5,0.8,1.1,1.2,1.8,1.2c0.5,0,1-0.2,1.4-0.7
						C125.6,95.2,125.9,94.5,126.1,93.6"/>
					<path id="Fill-24" class="st2" d="M130.8,98.2V84.4h1.2v2c0.6-1.5,1.4-2.3,2.5-2.3c0.5,0,0.9,0.1,1.3,0.4
						c0.4,0.3,0.7,0.7,0.9,1.2c0.2,0.5,0.3,1.1,0.4,1.7c0,0.4,0.1,1.2,0.1,2.3v8.5h-1.3v-8.4c0-1-0.1-1.7-0.2-2.1
						c-0.1-0.5-0.3-0.8-0.5-1.1c-0.3-0.3-0.6-0.4-0.9-0.4c-0.6,0-1,0.3-1.5,0.9c-0.4,0.6-0.6,1.8-0.6,3.6v7.5H130.8z"/>
					<path id="Fill-25" class="st2" d="M143.2,96.2l0.2,1.8c-0.5,0.1-0.9,0.2-1.2,0.2c-0.6,0-1.1-0.1-1.4-0.4
						c-0.3-0.2-0.6-0.5-0.7-0.9c-0.1-0.4-0.2-1.2-0.2-2.4v-6.9h-1.2V86h1.2v-3l1.6-1.2V86h1.7v1.6h-1.7v7c0,0.6,0,1,0.1,1.1
						c0.1,0.2,0.2,0.3,0.3,0.4c0.1,0.1,0.3,0.1,0.6,0.1C142.7,96.3,142.9,96.3,143.2,96.2"/>
					<path id="Fill-26" class="st2" d="M146.6,89.9h4.8c-0.1-1.1-0.2-2-0.5-2.5c-0.5-0.9-1.1-1.3-1.8-1.3c-0.7,0-1.2,0.4-1.7,1.1
						C146.9,87.8,146.7,88.7,146.6,89.9 M151.4,93.6l1.5,0.3c-0.2,1.4-0.7,2.4-1.3,3.2c-0.6,0.8-1.5,1.1-2.5,1.1
						c-1.3,0-2.3-0.6-3-1.8c-0.7-1.2-1.1-2.9-1.1-5.1c0-2.3,0.4-4,1.1-5.3c0.7-1.3,1.7-1.9,2.9-1.9c1.1,0,2.1,0.6,2.8,1.8
						s1.1,3,1.1,5.2c0,0.1,0,0.3,0,0.6h-6.4c0.1,1.5,0.3,2.6,0.8,3.4c0.5,0.8,1.1,1.2,1.8,1.2c0.5,0,1-0.2,1.4-0.7
						C150.9,95.2,151.2,94.5,151.4,93.6"/>
					<polygon id="Fill-27" class="st2" points="160.9,98.2 162.4,98.2 162.4,81.8 160.9,81.8 					"/>
					<path id="Fill-28" class="st2" d="M171.6,91.1c-0.5,0.3-1.3,0.6-2.4,0.9c-0.6,0.1-1,0.3-1.3,0.5c-0.2,0.2-0.4,0.4-0.6,0.7
						c-0.1,0.3-0.2,0.7-0.2,1.1c0,0.6,0.1,1.1,0.4,1.5c0.3,0.4,0.7,0.6,1.3,0.6c0.6,0,1.1-0.2,1.5-0.6c0.4-0.4,0.8-0.9,1-1.6
						c0.2-0.5,0.2-1.3,0.2-2.3V91.1z M171.7,96.2c-0.5,0.7-1.1,1.2-1.6,1.5c-0.5,0.3-1,0.4-1.6,0.4c-0.9,0-1.7-0.4-2.2-1.1
						c-0.5-0.7-0.8-1.6-0.8-2.8c0-0.7,0.1-1.3,0.3-1.8c0.2-0.5,0.4-1,0.8-1.3c0.3-0.3,0.7-0.6,1-0.7c0.3-0.1,0.7-0.2,1.3-0.3
						c1.2-0.2,2-0.5,2.6-0.8c0-0.3,0-0.5,0-0.6c0-0.9-0.1-1.6-0.4-2c-0.4-0.5-0.9-0.8-1.7-0.8c-0.7,0-1.2,0.2-1.5,0.6
						c-0.3,0.4-0.6,1-0.7,2l-1.4-0.3c0.1-1,0.3-1.7,0.6-2.3c0.3-0.6,0.7-1,1.3-1.4c0.6-0.3,1.2-0.5,1.9-0.5c0.7,0,1.3,0.1,1.8,0.4
						c0.5,0.3,0.8,0.6,1,1c0.2,0.4,0.4,0.9,0.5,1.6c0,0.4,0.1,1.1,0.1,2.1v3c0,2.1,0,3.5,0.1,4c0.1,0.6,0.2,1.1,0.4,1.6H172
						C171.9,97.4,171.8,96.9,171.7,96.2z"/>
					<path id="Fill-29" class="st2" d="M184.6,89.9h4.8c-0.1-1.1-0.2-2-0.5-2.5c-0.5-0.9-1.1-1.3-1.8-1.3c-0.7,0-1.2,0.4-1.7,1.1
						C184.9,87.8,184.6,88.7,184.6,89.9 M189.4,93.6l1.5,0.3c-0.2,1.4-0.7,2.4-1.3,3.2c-0.6,0.8-1.5,1.1-2.5,1.1
						c-1.3,0-2.2-0.6-3-1.8c-0.7-1.2-1.1-2.9-1.1-5.1c0-2.3,0.4-4,1.1-5.3c0.7-1.3,1.7-1.9,2.9-1.9c1.1,0,2.1,0.6,2.8,1.8
						s1.1,3,1.1,5.2c0,0.1,0,0.3,0,0.6h-6.4c0.1,1.5,0.3,2.6,0.8,3.4c0.5,0.8,1.1,1.2,1.8,1.2c0.5,0,1-0.2,1.4-0.7
						C188.9,95.2,189.2,94.5,189.4,93.6"/>
					<polygon id="Fill-30" class="st2" points="193,98.2 194.5,98.2 194.5,81.8 193,81.8 					"/>
					<path id="Fill-31" class="st2" d="M198.2,89.9h4.8c-0.1-1.1-0.2-2-0.5-2.5c-0.5-0.9-1.1-1.3-1.8-1.3c-0.7,0-1.2,0.4-1.7,1.1
						C198.5,87.8,198.3,88.7,198.2,89.9 M203,93.6l1.5,0.3c-0.2,1.4-0.7,2.4-1.3,3.2c-0.6,0.8-1.5,1.1-2.5,1.1c-1.3,0-2.3-0.6-3-1.8
						s-1.1-2.9-1.1-5.1c0-2.3,0.4-4,1.1-5.3c0.7-1.3,1.7-1.9,2.9-1.9c1.1,0,2.1,0.6,2.8,1.8c0.7,1.2,1.1,3,1.1,5.2
						c0,0.1,0,0.3,0,0.6h-6.4c0.1,1.5,0.3,2.6,0.8,3.4c0.5,0.8,1.1,1.2,1.8,1.2c0.5,0,1-0.2,1.4-0.7C202.5,95.2,202.8,94.5,203,93.6
						"/>
					<path id="Fill-32" class="st2" d="M213,93l1.5,0.3c-0.2,1.5-0.6,2.8-1.3,3.6c-0.7,0.9-1.5,1.3-2.5,1.3c-1.2,0-2.2-0.6-3-1.8
						c-0.8-1.2-1.1-2.9-1.1-5.2c0-1.5,0.2-2.7,0.5-3.8c0.3-1.1,0.8-1.9,1.5-2.5c0.7-0.5,1.4-0.8,2.2-0.8c1,0,1.8,0.4,2.4,1.1
						c0.6,0.7,1,1.8,1.2,3.2l-1.5,0.3c-0.1-0.9-0.4-1.6-0.8-2c-0.4-0.5-0.8-0.7-1.3-0.7c-0.8,0-1.4,0.4-1.9,1.2
						c-0.5,0.8-0.7,2.1-0.7,3.9c0,1.8,0.2,3.1,0.7,3.9c0.5,0.8,1.1,1.2,1.8,1.2c0.6,0,1.1-0.3,1.5-0.8C212.6,95,212.9,94.1,213,93"
						/>
					<path id="Fill-33" class="st2" d="M221.1,96.2l0.2,1.8c-0.5,0.1-0.9,0.2-1.2,0.2c-0.6,0-1.1-0.1-1.4-0.4
						c-0.3-0.2-0.6-0.5-0.7-0.9c-0.1-0.4-0.2-1.2-0.2-2.4v-6.9h-1.2V86h1.2v-3l1.6-1.2V86h1.7v1.6h-1.7v7c0,0.6,0,1,0.1,1.1
						c0.1,0.2,0.2,0.3,0.3,0.4c0.1,0.1,0.3,0.1,0.6,0.1C220.5,96.3,220.8,96.3,221.1,96.2"/>
					<path id="Fill-34" class="st2" d="M223.4,98.2V84.4h1.3v2.1c0.3-1,0.7-1.6,0.9-1.9c0.3-0.3,0.6-0.5,0.9-0.5
						c0.5,0,1,0.3,1.5,0.8l-0.5,2.2c-0.4-0.3-0.7-0.5-1.1-0.5c-0.3,0-0.6,0.2-0.9,0.5c-0.3,0.3-0.4,0.7-0.6,1.3
						c-0.2,0.8-0.2,1.7-0.2,2.7v7.2H223.4z"/>
					<path id="Fill-35" class="st2" d="M233.3,82.9l1.1-3.5h1.9l-1.7,3.5H233.3z M231.6,91.2c0,1.7,0.2,3,0.7,3.8
						c0.5,0.8,1.1,1.3,1.8,1.3c0.7,0,1.3-0.4,1.8-1.3c0.5-0.9,0.7-2.2,0.7-3.9c0-1.6-0.2-2.9-0.7-3.7c-0.5-0.8-1.1-1.3-1.8-1.3
						c-0.7,0-1.3,0.4-1.8,1.3C231.9,88.3,231.6,89.5,231.6,91.2z M230.2,91.2c0-2.5,0.4-4.3,1.3-5.5c0.7-1,1.6-1.5,2.7-1.5
						c1.2,0,2.1,0.6,2.8,1.8c0.7,1.2,1.1,2.9,1.1,5c0,1.7-0.2,3.1-0.5,4c-0.3,1-0.8,1.7-1.4,2.3c-0.6,0.5-1.3,0.8-2,0.8
						c-1.2,0-2.1-0.6-2.9-1.8C230.5,95.2,230.2,93.5,230.2,91.2z"/>
					<path id="Fill-36" class="st2" d="M240.1,98.2V84.4h1.2v2c0.6-1.5,1.4-2.3,2.5-2.3c0.5,0,0.9,0.1,1.3,0.4
						c0.4,0.3,0.7,0.7,0.9,1.2c0.2,0.5,0.3,1.1,0.4,1.7c0,0.4,0.1,1.2,0.1,2.3v8.5h-1.3v-8.4c0-1-0.1-1.7-0.2-2.1
						c-0.1-0.5-0.3-0.8-0.5-1.1c-0.3-0.3-0.6-0.4-0.9-0.4c-0.6,0-1,0.3-1.5,0.9c-0.4,0.6-0.6,1.8-0.6,3.6v7.5H240.1z"/>
					<path id="Fill-37" class="st2" d="M248.5,98.2h1.5V86.3h-1.5V98.2z M248.5,84.1h1.5v-2.3h-1.5V84.1z"/>
					<path id="Fill-38" class="st2" d="M258.5,93l1.5,0.3c-0.2,1.5-0.6,2.8-1.3,3.6c-0.7,0.9-1.5,1.3-2.5,1.3c-1.2,0-2.2-0.6-3-1.8
						c-0.8-1.2-1.1-2.9-1.1-5.2c0-1.5,0.2-2.7,0.5-3.8c0.3-1.1,0.8-1.9,1.5-2.5c0.7-0.5,1.4-0.8,2.2-0.8c1,0,1.8,0.4,2.4,1.1
						c0.6,0.7,1,1.8,1.2,3.2l-1.5,0.3c-0.1-0.9-0.4-1.6-0.8-2c-0.4-0.5-0.8-0.7-1.3-0.7c-0.8,0-1.4,0.4-1.9,1.2
						c-0.5,0.8-0.7,2.1-0.7,3.9c0,1.8,0.2,3.1,0.7,3.9c0.5,0.8,1.1,1.2,1.8,1.2c0.6,0,1.1-0.3,1.5-0.8C258.2,95,258.4,94.1,258.5,93
						"/>
					<path id="Fill-39" class="st2" d="M268.1,91.1c-0.5,0.3-1.3,0.6-2.4,0.9c-0.6,0.1-1,0.3-1.3,0.5c-0.2,0.2-0.4,0.4-0.6,0.7
						c-0.1,0.3-0.2,0.7-0.2,1.1c0,0.6,0.1,1.1,0.4,1.5c0.3,0.4,0.7,0.6,1.3,0.6c0.6,0,1.1-0.2,1.5-0.6c0.4-0.4,0.8-0.9,1-1.6
						c0.2-0.5,0.2-1.3,0.2-2.3V91.1z M268.2,96.2c-0.5,0.7-1.1,1.2-1.6,1.5c-0.5,0.3-1,0.4-1.6,0.4c-0.9,0-1.7-0.4-2.2-1.1
						c-0.5-0.7-0.8-1.6-0.8-2.8c0-0.7,0.1-1.3,0.3-1.8c0.2-0.5,0.4-1,0.8-1.3c0.3-0.3,0.7-0.6,1-0.7c0.3-0.1,0.7-0.2,1.3-0.3
						c1.2-0.2,2-0.5,2.6-0.8c0-0.3,0-0.5,0-0.6c0-0.9-0.1-1.6-0.4-2c-0.4-0.5-0.9-0.8-1.7-0.8c-0.7,0-1.2,0.2-1.5,0.6
						c-0.3,0.4-0.6,1-0.7,2l-1.4-0.3c0.1-1,0.3-1.7,0.6-2.3c0.3-0.6,0.7-1,1.3-1.4c0.6-0.3,1.2-0.5,1.9-0.5c0.7,0,1.3,0.1,1.8,0.4
						c0.5,0.3,0.8,0.6,1,1s0.4,0.9,0.5,1.6c0,0.4,0.1,1.1,0.1,2.1v3c0,2.1,0,3.5,0.1,4c0.1,0.6,0.2,1.1,0.4,1.6h-1.5
						C268.3,97.4,268.2,96.9,268.2,96.2z"/>
				</g>
			</g>
		</g>
	</g>
</g>
</svg>
